<svg id="Layer_1" data-name="Layer 1" xmlns="http://www.w3.org/2000/svg" viewBox="0 0 144 144"><defs><style>.cls-1{fill:#2c99cf;}.cls-2{fill:#fff;}</style></defs><title>empire-map-favicon</title><path class="cls-1" d="M117.76,47.11C117.76,72.38,74,142,74,142S26.24,72.38,26.24,47.11a45.76,45.76,0,0,1,91.52,0Z"/><path class="cls-2" d="M96.89,31.07v11H79.83V37.81H92.59V35.37H77.39v9.19H92.1v4.3H77.39v9.2h15.2V55.61H79.83v-4.3H96.89v11H73.09V31.07Z"/><path class="cls-2" d="M70.91,62.35H47.11v-11H64.17v4.3H51.41v2.45h15.2v-9.2H51.9v-4.3H66.61V35.37H51.41v2.44H64.17v4.31H47.11v-11h23.8Z"/></svg>